<svg width="1134" height="1133" viewBox="0 0 1134 1133" fill="none" xmlns="http://www.w3.org/2000/svg">
<path d="M-91.2605 321.892C-91.2605 321.892 -149.612 191.19 -0.711395 115.369C148.189 39.547 325.264 101.959 325.264 101.959L290.055 92.1352C290.055 92.1352 359.889 1.89081 527.491 0.0376103C695.092 -1.81477 785.936 65.3737 785.936 65.3737L687.46 112.687C687.46 112.687 843.167 9.88313 977.216 53.6801C1111.27 97.4775 1072.5 262 1072.5 262L1077.7 211C1077.7 211 1115 211 1128.5 342.5C1143.21 485.798 996.524 595.737 996.524 595.737L953.152 542.418C953.152 542.418 1021.57 576.599 1010.5 706.027C999.427 835.456 914.521 833.027 914.521 833.027L880.521 786.027C880.521 786.027 914.521 823.195 914.521 895C914.521 968.169 841.021 979.197 841.021 979.197C841.021 979.197 840.882 1049.84 762.545 1073.07C684.233 1096.3 610.408 1056.79 610.408 1056.79C610.408 1056.79 503.354 1125.84 434 1128.5C364.646 1131.16 314.5 1098.5 279.99 1011.2C182.155 1088.48 71.0838 1025.55 -12.7846 952.19C-92.4885 882.477 -52.0227 721.527 -52.0227 721.527C-52.0227 721.527 -196.819 686.249 -233.121 525.733C-269.422 365.218 -91.2605 321.892 -91.2605 321.892Z" fill="#FBEFCD" stroke="black" stroke-width="7.80472" stroke-linejoin="round"/>
</svg>
