<svg width="1088" height="508" viewBox="0 0 1088 508" fill="none" xmlns="http://www.w3.org/2000/svg">
<path d="M1032.59 29.1186C1004.35 14.2382 964.106 5.82781 926.253 5.58036C676.819 3.94976 292.907 1.26457 181.899 11.4649C141.035 15.2199 95.6995 20.2271 65.5943 36.9647C35.6298 53.6241 23.9386 79.8443 15.7494 103.656C0.983154 146.593 -1.92126 193.055 19.0723 235.078C27.9393 252.828 46.2234 269.388 68.9174 282.155C91.893 295.08 121.4 304.628 151.992 309.616C189.376 315.712 268.298 311.578 268.298 311.578L279.928 312.558L281.59 290.982C281.59 290.982 279.862 426.59 268.298 446.5C260.072 460.661 239 504 239 504C239 504 269.893 480.344 309.055 461.211C340.654 445.774 383 299.5 383 299.5L379.052 312.558C379.052 312.558 786.666 336.228 962.806 308.635C993.95 303.757 1027.64 296.132 1047.54 281.174C1065.97 267.33 1066.8 247.62 1070.8 230.175C1082.55 178.988 1092.66 125.474 1072.46 75.2144C1065.72 58.4276 1054.39 40.6074 1032.59 29.1186Z" fill="#FBEFCD" stroke="black" stroke-width="7.80472" stroke-linejoin="round"/>
</svg>
