<svg width="955" height="476" viewBox="0 0 955 476" fill="none" xmlns="http://www.w3.org/2000/svg">
<path d="M49.08 441.702C73.8435 459.651 109.129 469.795 142.321 470.094C361.038 472.061 697.672 475.299 795.009 462.996C830.841 458.467 870.594 452.427 896.991 432.238C923.266 412.144 933.517 380.518 940.698 351.796C953.646 300.007 956.193 243.964 937.784 193.277C930.009 171.868 913.977 151.892 894.077 136.494C873.931 120.904 848.058 109.387 821.233 103.37C788.453 96.0173 719.25 101.004 719.25 101.004L709.052 99.8213L707.595 125.847C707.595 125.847 707.653 74.1512 717.794 50.1361C725.006 33.0548 752.759 4 752.759 4C752.759 4 664.72 24.6932 630.38 47.7702C602.672 66.3903 569.191 119.932 569.191 119.932L584.852 95.9766C584.852 95.9766 264.718 71.2715 110.269 104.553C82.9604 110.438 53.4215 119.635 35.968 137.677C19.8132 154.376 19.0825 178.149 15.5715 199.192C5.26993 260.932 -3.59464 325.48 14.1146 386.102C20.0296 406.35 29.9607 427.845 49.08 441.702Z" fill="#FBEFCD" stroke="black" stroke-width="7.80472" stroke-linejoin="round"/>
</svg>
