<svg width="878" height="350" viewBox="0 0 878 350" fill="none" xmlns="http://www.w3.org/2000/svg">
<path d="M449.366 -5.89338C703.667 -9.23962 876.001 66.6282 873.982 158.701C871.972 250.426 662.085 292.867 488.44 306.437C466.806 308.128 381.564 306.835 381.564 306.835L425.395 282.504C425.395 282.504 297.578 331.681 235.688 340.47C172.187 349.487 38.4464 344.764 38.4464 344.764C38.4464 344.764 123.094 323.056 156.243 306.12C193.002 287.34 241.167 238.851 241.167 238.851L181.583 288.229C181.583 288.229 -28.9849 235.782 -21.822 145.819C-14.1539 49.5128 217.156 -2.83783 449.366 -5.89338Z" fill="#FBEFCD" stroke="black" stroke-width="7.80472" stroke-linejoin="round"/>
</svg>
