<svg width="459" height="402" viewBox="0 0 459 402" fill="none" xmlns="http://www.w3.org/2000/svg">
<path d="M396.924 267.395C396.924 267.395 420.018 320.441 361.087 351.213C302.156 381.985 232.075 356.656 232.075 356.656L252.382 353.39C252.382 353.39 218.371 397.268 152.038 398.02C85.7062 398.772 58.8626 377.338 58.8626 377.338L88.7269 352.302C88.7269 352.302 27.1021 394.025 -25.9514 376.25C-79.0048 358.474 -77.3177 289.166 -77.3177 289.166L-72.5393 313.114C-72.5393 313.114 -141.491 301.697 -158.548 233.65C-175.605 165.603 -123.906 107.379 -123.906 107.379L-98.8198 144.39C-98.8198 144.39 -125.899 130.517 -121.517 77.9883C-117.134 25.4594 -62.9828 25.738 -62.9828 25.738L-41.4807 62.7486C-41.4807 62.7486 -75.0099 -2.29633 -53.4263 -23.2465C-31.8426 -44.1966 15.8584 -29.7777 15.8584 -29.7777C15.8584 -29.7777 15.9134 -58.4475 46.9171 -67.8768C77.911 -77.306 119.785 -48.283 119.785 -48.283C119.785 -48.283 175.025 -83.8399 202.21 -74.408C228.198 -65.3918 260.62 -53.3271 249.993 -12.361C288.713 -43.7276 332.673 -18.1844 365.866 11.587C397.41 39.8802 381.395 105.202 381.395 105.202C381.395 105.202 438.702 119.52 453.069 184.666C467.436 249.811 396.924 267.395 396.924 267.395Z" fill="#FBEFCD" stroke="black" stroke-width="7.80472" stroke-linejoin="round"/>
</svg>
