<svg width="950" height="422" viewBox="0 0 950 422" fill="none" xmlns="http://www.w3.org/2000/svg">
<path d="M901.158 18.6132C876.525 2.25504 841.426 -6.99066 808.409 -7.26269C590.848 -9.05523 255.991 -12.0071 159.168 -0.79372C123.525 3.33414 83.982 8.83863 57.7236 27.2385C31.5878 45.5524 21.3905 74.3766 14.2477 100.554C1.36823 147.754 -1.16504 198.831 17.146 245.027C24.8801 264.539 40.8278 282.745 60.622 296.779C80.6619 310.988 106.399 321.484 133.082 326.968C165.689 333.669 234.526 329.124 234.526 329.124L244.67 330.202L246.12 306.483C246.12 306.483 246.062 353.598 235.975 375.485C228.801 391.053 201.194 417.533 201.194 417.533C201.194 417.533 288.769 398.674 322.927 377.642C350.489 360.671 383.794 311.874 383.794 311.874L368.215 333.706C368.215 333.706 686.658 356.223 840.292 325.89C867.456 320.526 896.839 312.144 914.201 295.701C930.27 280.482 930.997 258.815 934.49 239.637C944.737 183.366 953.555 124.538 935.939 69.2869C930.055 50.8329 920.176 31.243 901.158 18.6132Z" fill="#FBEFCD" stroke="black" stroke-width="7.80472" stroke-linejoin="round"/>
</svg>
