<svg width="1001" height="405" viewBox="0 0 1001 405" fill="none" xmlns="http://www.w3.org/2000/svg">
<path d="M51.2697 25.986C77.2361 12.9614 114.236 5.59986 149.04 5.38327C378.38 3.95603 731.366 1.60572 833.432 10.5339C871.004 13.8206 912.688 18.2033 940.368 32.8535C967.919 47.4353 978.668 70.3854 986.197 91.2278C999.774 128.809 1002.44 169.477 983.142 206.26C974.99 221.795 958.178 236.291 937.312 247.465C916.188 258.778 889.057 267.135 860.929 271.501C826.557 276.837 753.993 273.218 753.993 273.218L743.3 274.077L741.772 255.191C741.772 255.191 754.367 333.244 765 350.671C772.563 363.066 791.938 401 791.938 401C791.938 401 763.533 380.294 727.526 363.548C698.472 350.036 648.531 262.647 648.531 262.647L652.161 274.077C652.161 274.077 277.382 294.794 115.431 270.643C86.7959 266.373 55.8221 259.699 37.5208 246.607C20.5813 234.489 19.8152 217.237 16.1336 201.967C5.33162 157.164 -3.96355 110.325 14.606 66.3329C20.8082 51.6397 31.2217 36.042 51.2697 25.986Z" fill="#FBEFCD" stroke="black" stroke-width="7.80472" stroke-linejoin="round"/>
<path d="M51.2697 25.986C77.2361 12.9614 114.236 5.59986 149.04 5.38327C378.38 3.95603 731.366 1.60572 833.432 10.5339C871.004 13.8206 912.688 18.2033 940.368 32.8535C967.919 47.4353 978.668 70.3854 986.197 91.2278C999.774 128.809 1002.44 169.477 983.142 206.26C974.99 221.795 958.178 236.291 937.312 247.465C916.188 258.778 889.057 267.135 860.929 271.501C826.557 276.837 753.993 273.218 753.993 273.218L743.3 274.077L741.772 255.191C741.772 255.191 754.367 333.244 765 350.671C772.563 363.066 791.938 401 791.938 401C791.938 401 763.533 380.294 727.526 363.548C698.472 350.036 648.531 262.647 648.531 262.647L652.161 274.077C652.161 274.077 277.382 294.794 115.431 270.643C86.7959 266.373 55.8221 259.699 37.5208 246.607C20.5813 234.489 19.8152 217.237 16.1336 201.967C5.33162 157.164 -3.96355 110.325 14.606 66.3329C20.8082 51.6397 31.2217 36.042 51.2697 25.986Z" fill="#FBEFCD" stroke="black" stroke-width="7.80472" stroke-linejoin="round"/>
<path d="M51.2697 25.986C77.2361 12.9614 114.236 5.59986 149.04 5.38327C378.38 3.95603 731.366 1.60572 833.432 10.5339C871.004 13.8206 912.688 18.2033 940.368 32.8535C967.919 47.4353 978.668 70.3854 986.197 91.2278C999.774 128.809 1002.44 169.477 983.142 206.26C974.99 221.795 958.178 236.291 937.312 247.465C916.188 258.778 889.057 267.135 860.929 271.501C826.557 276.837 753.993 273.218 753.993 273.218L743.3 274.077L741.772 255.191C741.772 255.191 754.367 333.244 765 350.671C772.563 363.066 791.938 401 791.938 401C791.938 401 763.533 380.294 727.526 363.548C698.472 350.036 648.531 262.647 648.531 262.647L652.161 274.077C652.161 274.077 277.382 294.794 115.431 270.643C86.7959 266.373 55.8221 259.699 37.5208 246.607C20.5813 234.489 19.8152 217.237 16.1336 201.967C5.33162 157.164 -3.96355 110.325 14.606 66.3329C20.8082 51.6397 31.2217 36.042 51.2697 25.986Z" fill="#FBEFCD" stroke="black" stroke-width="7.80472" stroke-linejoin="round"/>
</svg>
