<svg width="810" height="435" viewBox="0 0 810 435" fill="none" xmlns="http://www.w3.org/2000/svg">
<path d="M42.6754 32.0798C63.6192 15.7216 93.4624 6.47589 121.535 6.20386C306.515 4.41132 591.224 1.45946 673.548 12.6728C703.853 16.8007 737.474 22.3052 759.8 40.7051C782.022 59.019 790.692 87.8431 796.765 114.02C807.716 161.221 809.87 212.297 794.301 258.494C787.725 278.006 774.166 296.212 757.336 310.246C740.297 324.454 718.414 334.95 695.727 340.434C668.003 347.136 609.475 342.591 609.475 342.591L600.85 343.669L599.618 319.949C599.618 319.949 599.667 367.064 608.243 388.952C614.343 404.52 637.815 431 637.815 431C637.815 431 563.355 412.14 534.312 391.108C510.879 374.138 482.561 325.34 482.561 325.34L495.807 347.173C495.807 347.173 225.052 369.689 94.4267 339.356C71.3299 333.993 46.3473 325.611 31.5859 309.168C17.9229 293.948 17.3049 272.282 14.3355 253.103C5.62288 196.833 -1.87437 138.005 13.1033 82.7534C18.1059 64.2995 26.5052 44.7096 42.6754 32.0798Z" fill="#FBEFCD" stroke="black" stroke-width="7.80472" stroke-linejoin="round"/>
</svg>
