<svg width="1137" height="626" viewBox="0 0 1137 626" fill="none" xmlns="http://www.w3.org/2000/svg">
<path d="M-41.0128 128.36C-41.0128 128.36 -89.5213 47.0082 34.2624 -0.185242C158.046 -47.3787 305.252 -8.53211 305.252 -8.53211L262.596 -3.52399C262.596 -3.52399 334.036 -70.8169 473.366 -71.9704C612.697 -73.1233 669.081 -40.2515 669.081 -40.2515L606.352 -1.85462C606.352 -1.85462 735.794 -65.8423 847.232 -38.5819C958.67 -11.3212 948.235 81.5 948.235 81.5V52.5C948.235 52.5 1089.92 75.7542 1125.75 180.112C1161.58 284.471 1041.52 340.5 1041.52 340.5L1027.5 321C1027.5 321 1057.17 338.28 1047.97 418.839C1038.76 499.399 940 471.339 940 471.339L910.5 418.839C910.5 418.839 972.778 508.305 927.442 540.435C882.106 572.565 781.911 550.452 781.911 550.452C781.911 550.452 781.795 594.42 716.672 608.881C651.57 623.342 563.613 578.832 563.613 578.832C563.613 578.832 447.585 633.363 390.481 618.898C335.894 605.07 267.792 586.568 290.115 523.741C208.783 571.846 93.947 566.333 24.2257 520.674C-42.0336 477.283 -8.39366 377.104 -8.39366 377.104C-8.39366 377.104 -128.765 355.146 -158.944 255.236C-189.122 155.327 -41.0128 128.36 -41.0128 128.36Z" fill="#FBEFCD" stroke="black" stroke-width="7.80472" stroke-linejoin="round"/>
</svg>
