<svg width="1920" height="1200" viewBox="0 0 1920 1200" fill="none" xmlns="http://www.w3.org/2000/svg">
<g clip-path="url(#clip0_237_155)">
<path d="M615.708 1658.03C507.326 1597.2 612.357 1532.5 595.95 1515.31C751.487 1502.1 498.98 1545.48 453.69 1447.41C408.399 1349.33 626.588 1264.45 531.965 1309.65C516.277 1330.38 393.073 1263.82 433.875 1161.73C474.678 1059.65 603.587 1037.97 609.825 1041.12C714.254 1045.51 454.622 1049.04 460.617 938.537C466.612 828.03 606.647 832.604 593.143 824.067C579.639 815.531 441.807 784.205 449.076 680.724C456.345 577.243 601.311 503.157 596.5 507.5C670.5 539 455.453 472.14 488.852 330.798C522.252 189.456 643.519 142.214 643.519 142.214C643.519 142.214 522.603 97.5389 543.654 12.9984C564.705 -71.5421 646.127 -88.5305 676.18 -101.471C822.169 -47.7284 559.823 -102.495 612.556 -260.643C665.289 -418.792 928.82 -354.335 739.398 -365.49C739.398 -365.49 756.413 -494.872 914.319 -541.269C1072.23 -587.665 1310.62 -354.588 1130.72 -483.761C1081.24 -511.797 1153.57 -573.386 1267.32 -549.574C1381.08 -525.762 1361.94 -414.69 1361.94 -414.69C1361.94 -414.69 1483.61 -485.187 1558.09 -369.988C1632.57 -254.789 1307.5 -83.9369 1452.46 -170.229C1452.46 -170.229 1501.48 -121.017 1483.63 -29.3716C1465.77 62.2733 1362.62 106.521 1351.93 109.855C1229.34 28.2903 1443.49 139.023 1432.99 254.417C1422.5 369.811 1321.77 427.809 1321.77 427.809C1321.77 427.809 1463.5 437.365 1445.2 543.289C1426.9 649.213 1292.42 644.954 1292.42 644.954C1292.42 644.954 1368.87 651.371 1352.24 726.829C1335.61 802.287 1281.19 847.119 1281.19 847.119C1281.19 847.119 1416.49 860.814 1395.5 941.412C1374.51 1022.01 1258.59 1068.53 1258.59 1068.53C1258.59 1068.53 1378.15 1107.49 1348.73 1197.99C1319.31 1288.48 1244.41 1343.73 1244.41 1343.73C1163.13 1234.89 1334.32 1431.25 1245.86 1529.67C1157.39 1628.09 1110.84 1569.87 1110.84 1569.87C1110.84 1569.87 1056.54 1702.92 930.104 1697.92C803.673 1692.93 853.462 1634.05 824.681 1635.68C986.05 1550.36 724.091 1718.86 615.708 1658.03Z" fill="#FBEFCD" stroke="black" stroke-width="1.9389" stroke-linecap="round" stroke-linejoin="round"/>
</g>
<defs>
<clipPath id="clip0_237_155">
<rect width="2094.2" height="1414.06" fill="white" transform="translate(774.223 1923.7) rotate(-113.296)"/>
</clipPath>
</defs>
</svg>
