<svg width="1115" height="697" viewBox="0 0 1115 697" fill="none" xmlns="http://www.w3.org/2000/svg">
<path d="M-36.6895 70.8562C-36.6895 70.8562 -84.1336 -31.8107 36.9339 -91.3692C158.001 -150.928 301.977 -101.903 301.977 -101.903L260.257 -95.5827C260.257 -95.5827 330.13 -180.507 466.403 -181.963C602.676 -183.418 657.823 -141.933 657.823 -141.933L596.47 -93.476C596.47 -93.476 723.072 -174.229 832.064 -139.826C941.057 -105.423 930.852 11.7183 930.852 11.7183V-24.88C930.852 -24.88 1069.43 4.467 1104.47 136.168C1139.51 267.869 1022.09 338.578 1022.09 338.578L1008.38 313.969C1008.38 313.969 1037.4 335.776 1028.39 437.443C1019.39 539.11 922.797 503.699 922.797 503.699L910.515 467C910.515 467 954.856 550.35 910.515 590.898C866.174 631.446 768.177 603.539 768.177 603.539C768.177 603.539 768.064 659.028 704.37 677.278C640.696 695.528 554.669 639.355 554.669 639.355C554.669 639.355 441.187 708.174 385.336 689.919C331.947 672.468 265.339 649.118 287.172 569.83C207.625 630.538 95.3089 623.581 27.1175 565.96C-37.6879 511.2 -4.78615 384.773 -4.78615 384.773C-4.78615 384.773 -122.517 357.061 -152.033 230.975C-181.548 104.889 -36.6895 70.8562 -36.6895 70.8562Z" fill="#FBEFCD" stroke="black" stroke-width="7.80472" stroke-linejoin="round"/>
</svg>
