<svg width="955" height="282" viewBox="0 0 955 282" fill="none" xmlns="http://www.w3.org/2000/svg">
<path d="M49.08 251.846C73.8435 267.34 109.129 276.097 142.321 276.354C361.038 278.052 697.672 280.848 795.009 270.227C830.841 266.317 870.594 261.104 896.991 243.676C923.266 226.33 933.517 199.028 940.698 174.234C953.646 129.527 956.193 81.1487 937.784 37.3927C930.009 18.9114 913.977 1.66772 894.077 -11.6252C873.931 -25.083 848.058 -35.0246 821.233 -40.2189C788.453 -46.5663 719.25 -42.2613 719.25 -42.2613L709.052 -43.2824L707.595 -20.816C707.595 -20.816 707.653 -65.4421 717.794 -86.1731C725.006 -100.918 752.759 -126 752.759 -126C752.759 -126 664.72 -108.137 630.38 -88.2155C602.672 -72.1417 569.191 -25.922 569.191 -25.922L584.852 -46.6014C584.852 -46.6014 264.718 -67.928 110.269 -39.1977C82.9604 -34.1176 53.4215 -26.1783 35.968 -10.604C19.8132 3.81152 19.0825 24.3335 15.5715 42.4987C5.26993 95.7963 -3.59464 151.517 14.1146 203.849C20.0296 221.328 29.9607 239.883 49.08 251.846Z" fill="#FBEFCD" stroke="black" stroke-width="7.80472" stroke-linejoin="round"/>
</svg>
