<svg width="1124" height="776" viewBox="0 0 1124 776" fill="none" xmlns="http://www.w3.org/2000/svg">
<path d="M-18.6312 137.769C-18.6312 137.769 -65.7008 33.1073 54.4111 -27.6084C174.523 -88.324 317.362 -38.3468 317.362 -38.3468L275.972 -31.9038C275.972 -31.9038 345.293 -118.478 480.49 -119.962C615.688 -121.445 670.4 -79.1547 670.4 -79.1547L609.531 -29.7561C609.531 -29.7561 735.133 -112.078 843.266 -77.0067C951.398 -41.9351 941.273 77.4819 941.273 77.4819V40.1726C941.273 40.1726 1078.76 70.0898 1113.52 204.349C1148.29 338.609 1031.79 410.692 1031.79 410.692L1018.19 385.605C1018.19 385.605 1046.98 407.836 1038.05 511.478C1029.11 615.12 933.283 579.021 933.283 579.021L904.658 511.478C904.658 511.478 965.089 626.579 921.097 667.914C877.106 709.25 779.883 680.801 779.883 680.801C779.883 680.801 779.771 737.368 716.579 755.972C653.408 774.577 568.06 717.313 568.06 717.313C568.06 717.313 455.473 787.468 400.063 768.859C347.095 751.069 281.014 727.265 302.674 646.437C223.755 708.325 112.325 701.232 44.6722 642.492C-19.6217 586.668 13.0204 457.784 13.0204 457.784C13.0204 457.784 -103.781 429.534 -133.064 300.999C-162.347 172.463 -18.6312 137.769 -18.6312 137.769Z" fill="#FBEFCD" stroke="black" stroke-width="7.80472" stroke-linejoin="round"/>
</svg>
