<svg width="1264" height="932" viewBox="0 0 1264 932" fill="none" xmlns="http://www.w3.org/2000/svg">
<path d="M32.5031 243.997C32.5031 243.997 -18.1988 131.122 111.182 65.6421C240.562 0.161797 394.424 54.0609 394.424 54.0609L361 44.9246C361 44.9246 424.511 -32.3584 570.141 -33.9589C715.771 -35.5586 785 26.011 785 26.011L709.139 63.3259C709.139 63.3259 844.434 -25.4562 960.911 12.3673C1077.39 50.1911 1066.48 178.979 1066.48 178.979V138.742C1066.48 138.742 1214.57 171.007 1252.02 315.803C1289.47 460.599 1174.63 539.5 1174.63 539.5L1170.72 502.5C1170.72 502.5 1180.34 535.258 1170.72 647.034C1161.1 758.809 1069.21 726.5 1069.21 726.5L1057.87 667.5C1057.87 667.5 1092.13 771.167 1044.75 815.746C997.362 860.326 892.636 829.644 892.636 829.644C892.636 829.644 892.516 890.65 824.448 910.715C756.402 930.779 664.468 869.021 664.468 869.021C664.468 869.021 543.193 944.682 483.508 924.612C426.452 905.427 355.271 879.755 378.603 792.583C293.593 859.328 173.565 851.679 100.691 788.328C31.4361 728.124 66.5971 589.126 66.5971 589.126C66.5971 589.126 -59.2174 558.659 -90.7603 420.037C-122.303 281.414 32.5031 243.997 32.5031 243.997Z" fill="#FBEFCD" stroke="black" stroke-width="7.80472" stroke-linejoin="round"/>
</svg>
