<svg width="1146" height="420" viewBox="0 0 1146 420" fill="none" xmlns="http://www.w3.org/2000/svg">
<path d="M1082.12 383.76C1049.22 402.859 1002.35 413.654 958.253 413.972C667.709 416.064 220.523 419.511 91.2195 406.419C43.6204 401.599 -9.1875 395.172 -44.2546 373.69C-79.1577 352.307 -92.7758 318.654 -102.315 288.09C-119.515 232.981 -122.898 173.347 -98.4442 119.41C-88.1157 96.6284 -66.8181 75.3726 -40.3838 58.9868C-13.6215 42.3976 20.749 30.1429 56.3833 23.7401C99.9288 15.9158 191.857 21.2224 191.857 21.2224L205.405 19.9637L207.34 47.6575C207.34 47.6575 207.263 -7.35193 193.793 -32.9065C184.212 -51.0827 147.344 -82 147.344 -82C147.344 -82 264.296 -59.9804 309.913 -35.4241C346.72 -15.6104 391.198 41.3635 391.198 41.3635L370.393 15.8725C370.393 15.8725 795.661 -10.4163 1000.83 24.9989C1037.11 31.2609 1076.35 41.0475 1099.53 60.2456C1120.99 78.0152 1121.96 103.312 1126.63 125.704C1140.31 191.402 1152.09 260.087 1128.56 324.596C1120.71 346.142 1107.51 369.014 1082.12 383.76Z" fill="#FBEFCD" stroke="black" stroke-width="7.80472" stroke-linejoin="round"/>
</svg>
