<svg width="549" height="349" viewBox="0 0 549 349" fill="none" xmlns="http://www.w3.org/2000/svg">
<path d="M288.608 -27.887C442.154 -31.4329 546.208 48.9612 544.989 146.527C543.775 243.725 417.047 288.697 312.201 303.077C299.139 304.868 247.67 303.499 247.67 303.499L274.135 277.716C274.135 277.716 196.96 329.827 159.591 339.14C121.249 348.695 40.4976 343.69 40.4976 343.69C40.4976 343.69 91.607 320.687 111.623 302.741C133.818 282.84 162.899 231.458 162.899 231.458L126.923 283.783C126.923 283.783 -0.217041 228.207 4.10791 132.877C8.73779 30.8246 148.402 -24.6492 288.608 -27.887Z" fill="#FBEFCD" stroke="black" stroke-width="7.80472" stroke-linejoin="round"/>
</svg>
