<svg width="1084" height="491" viewBox="0 0 1084 491" fill="none" xmlns="http://www.w3.org/2000/svg">
<path d="M55.2208 30.7487C83.3575 14.9026 123.45 5.94643 161.163 5.68292C409.673 3.9465 792.163 1.08706 902.76 11.9493C943.473 15.948 988.64 21.2801 1018.63 39.1039C1048.49 56.8444 1060.14 84.7661 1068.29 110.124C1083.01 155.846 1085.9 205.324 1064.98 250.074C1056.15 268.975 1037.93 286.611 1015.32 300.206C992.433 313.969 963.035 324.137 932.556 329.449C895.31 335.941 773 332.582 773 332.582H768.994L759.757 310.65C759.757 310.65 800.979 409.298 812.5 430.5C820.695 445.58 857.797 487 857.797 487C857.797 487 827.019 461.808 788.002 441.435C756.52 424.996 714.067 315.543 714.067 315.543L718 329.449C718 329.449 300.233 357.788 124.745 328.404C93.7164 323.209 60.1537 315.089 40.3227 299.161C21.9672 284.418 21.1371 263.43 17.1478 244.852C5.44292 190.343 -4.62918 133.357 15.4925 79.8358C22.2131 61.9596 33.497 42.983 55.2208 30.7487Z" fill="#FBEFCD" stroke="black" stroke-width="7.80472" stroke-linejoin="round"/>
</svg>
