<svg width="914" height="505" viewBox="0 0 914 505" fill="none" xmlns="http://www.w3.org/2000/svg">
<path d="M47.1283 472.566C70.8196 491.78 104.578 502.64 136.333 502.959C345.58 505.065 667.639 508.532 760.762 495.361C795.043 490.512 833.075 484.047 858.33 462.435C883.466 440.924 893.274 407.067 900.144 376.32C912.531 320.879 914.968 260.885 897.356 206.623C889.918 183.704 874.58 162.321 855.542 145.836C836.268 129.147 811.515 116.818 785.851 110.377C754.49 102.506 688.284 107.844 688.284 107.844L678.527 106.578L677.133 134.439C677.133 134.439 677.189 79.0978 686.89 53.3893C693.79 35.1035 720.342 3.99997 720.342 3.99997C720.342 3.99997 636.114 26.1523 603.261 50.8565C576.753 70.7896 544.721 128.107 544.721 128.107L559.704 102.462C559.704 102.462 253.43 76.015 105.669 111.643C79.5419 117.943 51.2818 127.789 34.584 147.103C19.1285 164.979 18.4295 190.428 15.0705 212.955C5.21495 279.049 -3.26583 348.148 13.6767 413.045C19.3356 434.721 28.8367 457.731 47.1283 472.566Z" fill="#FBEFCD" stroke="black" stroke-width="7.80472" stroke-linejoin="round"/>
</svg>
