<svg width="673" height="354" viewBox="0 0 673 354" fill="none" xmlns="http://www.w3.org/2000/svg">
<path d="M353.842 4.1048C542.581 0.815601 670.485 75.3903 668.987 165.893C667.495 256.056 511.72 297.772 382.842 311.112C366.786 312.773 303.52 311.503 303.52 311.503L336.052 287.586C336.052 287.586 241.187 335.926 195.253 344.564C148.124 353.427 48.863 348.785 48.863 348.785C48.863 348.785 111.687 327.447 136.29 310.799C163.572 292.34 199.319 244.677 199.319 244.677L155.097 293.214C155.097 293.214 -1.18365 241.661 4.13263 153.232C9.82373 58.5666 181.499 7.10827 353.842 4.1048Z" fill="#FBEFCD" stroke="black" stroke-width="7.80472" stroke-linejoin="round"/>
</svg>
