<svg width="900" height="354" viewBox="0 0 900 354" fill="none" xmlns="http://www.w3.org/2000/svg">
<path d="M426.738 4.1048C173.573 0.815601 2.00793 75.3903 4.01747 165.893C6.01939 256.056 214.968 297.772 387.839 311.112C409.375 312.773 494.237 311.503 494.237 311.503L450.602 287.586C450.602 287.586 577.848 335.926 639.462 344.564C702.679 353.427 835.823 348.785 835.823 348.785C835.823 348.785 751.554 327.447 718.552 310.799C681.957 292.34 634.008 244.677 634.008 244.677L693.325 293.214C693.325 293.214 902.953 241.661 895.822 153.232C888.188 58.5666 657.911 7.10827 426.738 4.1048Z" fill="#FBEFCD" stroke="black" stroke-width="7.80472" stroke-linejoin="round"/>
</svg>
