<svg width="707" height="527" viewBox="0 0 707 527" fill="none" xmlns="http://www.w3.org/2000/svg">
<path d="M335.271 4.1572C136.883 -0.776599 2.43895 111.085 4.01369 246.84C5.58246 382.083 169.322 444.659 304.788 464.667C321.665 467.16 388.166 465.254 388.166 465.254L353.971 429.38C353.971 429.38 453.686 501.888 501.969 514.846C551.508 528.141 655.843 521.177 655.843 521.177C655.843 521.177 589.807 489.17 563.946 464.199C535.269 436.51 497.694 365.016 497.694 365.016L544.177 437.821C544.177 437.821 708.449 360.491 702.861 227.847C696.878 85.8498 516.426 8.66241 335.271 4.1572Z" fill="#FBEFCD" stroke="black" stroke-width="7.80472" stroke-linejoin="round"/>
</svg>
