<svg width="724" height="345" viewBox="0 0 724 345" fill="none" xmlns="http://www.w3.org/2000/svg">
<path d="M81.9709 145.31C81.9709 145.31 50.9656 87.9344 130.085 54.6497C209.204 21.365 303.294 48.7628 303.294 48.7628L279.5 43.5029C279.5 43.5029 321.692 4.83442 410.748 4.0209C499.804 3.20773 539 35.5123 539 35.5123L495.748 53.4723C495.748 53.4723 578.484 8.34294 649.712 27.5692C720.94 46.7957 714.271 112.261 714.271 112.261V91.8076C714.271 91.8076 804.833 108.208 827.733 181.81C850.633 255.412 773.898 294.929 773.898 294.929L764.935 281.176C764.935 281.176 783.899 293.363 778.016 350.18C772.132 406.998 709.007 387.208 709.007 387.208L690.152 350.18C690.152 350.18 729.958 413.279 700.981 435.94C672.003 458.6 607.961 443.004 607.961 443.004C607.961 443.004 607.887 474.014 566.262 484.214C524.651 494.413 468.431 463.02 468.431 463.02C468.431 463.02 394.269 501.48 357.77 491.278C322.879 481.526 279.35 468.476 293.619 424.166C241.633 458.093 168.233 454.205 123.67 422.003C81.3184 391.4 102.82 320.745 102.82 320.745C102.82 320.745 25.8818 305.258 6.59268 234.794C-12.6962 164.33 81.9709 145.31 81.9709 145.31Z" fill="#FBEFCD" stroke="black" stroke-width="7.80472" stroke-linejoin="round"/>
</svg>
