<svg width="1008" height="278" viewBox="0 0 1008 278" fill="none" xmlns="http://www.w3.org/2000/svg">
<path d="M51.6029 21.4795C77.7523 11.1246 115.013 5.27193 150.062 5.09974C381.02 3.96504 736.493 2.09648 839.278 9.19466C877.115 11.8076 919.093 15.292 946.968 26.9394C974.713 38.5322 985.538 56.7782 993.121 73.3485C1006.79 103.227 1009.48 135.559 990.044 164.802C981.834 177.153 964.904 188.678 943.891 197.561C922.618 206.555 895.296 213.2 866.97 216.671C832.355 220.913 759.28 218.036 759.28 218.036L748.511 218.718L746.973 203.704C746.973 203.704 747.034 233.528 757.742 247.383C765.358 257.238 794.664 274 794.664 274C794.664 274 701.697 262.062 665.436 248.748C636.178 238.006 600.822 207.116 600.822 207.116L617.36 220.937C617.36 220.937 279.309 235.19 116.217 215.989C87.3795 212.593 56.1874 207.287 37.7571 196.879C20.6982 187.245 19.9266 173.53 16.2191 161.389C5.341 125.77 -4.01968 88.531 14.6807 53.5564C20.9267 41.8748 31.4136 29.4742 51.6029 21.4795Z" fill="#FBEFCD" stroke="black" stroke-width="7.80472" stroke-linejoin="round"/>
</svg>
