<svg width="825" height="435" viewBox="0 0 825 435" fill="none" xmlns="http://www.w3.org/2000/svg">
<path d="M752.722 104.668C752.722 104.668 779.867 63.888 710.599 40.2308C641.331 16.5737 558.957 36.0467 558.957 36.0467L582.826 38.5572C582.826 38.5572 542.849 4.82452 464.882 4.2463C386.914 3.66834 355.362 20.1464 355.362 20.1464L390.465 39.394C390.465 39.394 318.031 7.31821 255.671 20.9833C193.312 34.6486 195.295 87.9314 195.295 87.9314L200.912 69.5207C200.912 69.5207 119.865 78.2978 99.8165 130.611C79.7676 182.923 140.535 227.685 140.535 227.685L170.021 199.232C170.021 199.232 138.193 209.897 143.344 250.28C148.495 290.663 212.144 290.449 212.144 290.449L237.418 261.996C237.418 261.996 198.008 312.001 223.377 328.107C248.747 344.213 304.815 333.128 304.815 333.128C304.815 333.128 304.88 355.169 341.321 362.418C377.752 369.667 426.971 347.355 426.971 347.355C426.971 347.355 491.9 374.69 523.854 367.439C554.4 360.508 592.509 351.233 580.018 319.739C625.53 343.853 677.2 324.216 716.215 301.328C753.293 279.577 734.469 229.359 734.469 229.359C734.469 229.359 801.827 218.351 818.715 168.269C835.602 118.186 752.722 104.668 752.722 104.668Z" fill="#FBEFCD" stroke="black" stroke-width="7.80472" stroke-linejoin="round"/>
<path d="M271.066 378.665C230.825 378.665 198.203 358.264 198.203 333.099C198.203 307.933 230.825 287.532 271.066 287.532C311.307 287.532 343.929 307.933 343.929 333.099C343.929 358.264 311.307 378.665 271.066 378.665Z" fill="#FBEFCD" stroke="black" stroke-width="4.23145" stroke-linejoin="round"/>
<path d="M141.097 405.483C114.574 405.483 93.0723 393.417 93.0723 378.534C93.0723 363.65 114.574 351.584 141.097 351.584C167.62 351.584 189.121 363.65 189.121 378.534C189.121 393.417 167.62 405.483 141.097 405.483Z" fill="#FBEFCD" stroke="black" stroke-width="2.85354" stroke-linejoin="round"/>
<path d="M39.4986 433.713C18.5206 433.713 1.51469 423.765 1.51469 411.493C1.51469 399.221 18.5206 389.273 39.4986 389.273C60.4765 389.273 77.4824 399.221 77.4824 411.493C77.4824 423.765 60.4765 433.713 39.4986 433.713Z" fill="#FBEFCD" stroke="black" stroke-width="1.9389" stroke-linejoin="round"/>
</svg>
