<svg width="970" height="400" viewBox="0 0 970 400" fill="none" xmlns="http://www.w3.org/2000/svg">
<path d="M49.794 29.3776C74.9497 14.3438 110.795 5.84666 144.512 5.59665C366.693 3.94924 708.659 1.23637 807.538 11.5419C843.937 15.3355 884.32 20.3944 911.136 37.3045C937.827 54.1357 948.24 80.6262 955.535 104.684C968.688 148.063 971.275 195.004 952.575 237.461C944.677 255.393 928.39 272.124 908.176 285.022C887.711 298.081 861.427 307.727 834.177 312.767C800.878 318.926 730.58 314.749 730.58 314.749L720.22 315.739L718.74 293.94C718.74 293.94 718.799 337.241 729.1 357.356C736.426 371.663 764.619 396 764.619 396C764.619 396 675.185 378.667 640.302 359.338C612.155 343.741 578.143 298.895 578.143 298.895L594.053 318.96C594.053 318.96 268.848 339.653 111.953 311.776C84.2111 306.847 54.2043 299.143 36.4744 284.032C20.0636 270.044 19.3214 250.132 15.7548 232.506C5.29004 180.792 -3.71494 126.727 14.2749 75.9485C20.2835 58.9887 30.3719 40.9848 49.794 29.3776Z" fill="#FBEFCD" stroke="black" stroke-width="7.80472" stroke-linejoin="round"/>
</svg>
