<svg width="970" height="261" viewBox="0 0 970 261" fill="none" xmlns="http://www.w3.org/2000/svg">
<path d="M49.794 20.3789C74.9497 10.676 110.795 5.19185 144.512 5.03049C366.693 3.96724 708.659 2.21633 807.538 8.86759C843.937 11.316 884.32 14.5811 911.136 25.495C937.827 36.358 948.24 53.4551 955.535 68.9822C968.688 96.9793 971.275 127.276 952.575 154.677C944.677 166.251 928.39 177.05 908.176 185.374C887.711 193.802 861.427 200.028 834.177 203.281C800.878 207.256 730.58 204.56 730.58 204.56L720.22 205.199L718.74 191.13C718.74 191.13 718.799 219.076 729.1 232.059C736.426 241.293 764.619 257 764.619 257C764.619 257 675.185 245.813 640.302 233.338C612.155 223.272 578.143 194.327 578.143 194.327L594.053 207.278C594.053 207.278 268.848 220.633 111.953 202.641C84.2111 199.46 54.2043 194.488 36.4744 184.735C20.0636 175.707 19.3214 162.856 15.7548 151.48C5.29004 118.103 -3.71494 83.2087 14.2749 50.4362C20.2835 39.4901 30.3719 27.8703 49.794 20.3789Z" fill="#FBEFCD" stroke="black" stroke-width="7.80472" stroke-linejoin="round"/>
</svg>
