<svg width="1130" height="488" viewBox="0 0 1130 488" fill="none" xmlns="http://www.w3.org/2000/svg">
<path d="M542.849 4.14539C220.148 -0.417664 1.46078 103.039 4.02226 228.592C6.57404 353.672 272.914 411.546 493.265 430.051C520.717 432.356 628.888 430.594 628.888 430.594L573.267 397.415C573.267 397.415 735.463 464.475 814.001 476.459C894.581 488.755 1064.29 482.314 1064.29 482.314C1064.29 482.314 956.88 452.712 914.814 429.618C868.167 404.009 807.048 337.888 807.048 337.888L882.658 405.221C882.658 405.221 1149.86 333.703 1140.77 211.027C1131.04 79.6993 837.516 8.31206 542.849 4.14539Z" fill="#FBEFCD" stroke="black" stroke-width="7.80472" stroke-linejoin="round"/>
</svg>
