<svg width="629" height="425" viewBox="0 0 629 425" fill="none" xmlns="http://www.w3.org/2000/svg">
<path d="M330.694 4.09844C506.945 1.00887 626.387 71.0573 624.988 156.067C623.594 240.757 484.35 257.845 364 270.374C349.006 271.935 277 281.63 277 281.63L314.081 270.374C314.081 270.374 210.5 298 176.5 330C135.204 363 127.537 420.5 127.537 420.5C127.537 420.5 107 354.5 122 320.5C131.5 281.635 176.5 245 176.5 245L145.1 275.66C145.1 275.66 -0.840637 227.236 4.12384 144.174C9.43842 55.2547 169.755 6.91962 330.694 4.09844Z" fill="#FBEFCD" stroke="black" stroke-width="7.80472" stroke-linejoin="round"/>
</svg>
