<svg width="571" height="174" viewBox="0 0 571 174" fill="none" xmlns="http://www.w3.org/2000/svg">
<path d="M30.8005 14.7466C45.5226 8.38028 66.5003 4.782 86.2331 4.67613C216.262 3.97851 416.394 2.82969 474.262 7.19375C495.564 8.80025 519.198 10.9425 534.891 18.1035C550.512 25.2309 556.606 36.4488 560.875 46.6365C568.573 65.0062 570.087 84.8845 559.143 102.863C554.521 110.457 544.989 117.542 533.159 123.004C521.182 128.534 505.8 132.619 489.852 134.753C470.364 137.361 429.223 135.593 429.223 135.593L423.16 136.012L422.294 126.781C422.294 126.781 422.328 145.117 428.357 153.635C432.645 159.694 449.144 170 449.144 170C449.144 170 396.804 162.66 376.389 154.475C359.916 147.87 340.011 128.879 340.011 128.879L349.322 137.376C349.322 137.376 158.999 146.139 67.1782 134.334C50.9427 132.246 33.3815 128.984 23.0053 122.585C13.4011 116.662 12.9667 108.229 10.8794 100.765C4.75498 78.8659 -0.515082 55.9709 10.0132 34.468C13.5297 27.286 19.4339 19.6619 30.8005 14.7466Z" fill="#FBEFCD" stroke="black" stroke-width="7.80472" stroke-linejoin="round"/>
</svg>
