<svg width="1043" height="324" viewBox="0 0 1043 324" fill="none" xmlns="http://www.w3.org/2000/svg">
<path d="M53.2691 24.4574C80.3337 12.3384 118.898 5.48863 155.175 5.2871C394.215 3.95908 762.131 1.77218 868.513 10.0797C907.675 13.1378 951.122 17.2159 979.973 30.8475C1008.69 44.4155 1019.89 65.7701 1027.74 85.1635C1041.89 120.132 1044.68 157.973 1024.56 192.198C1016.06 206.653 998.536 220.141 976.788 230.539C954.77 241.065 926.492 248.841 897.174 252.904C861.348 257.869 785.715 254.501 785.715 254.501L774.569 255.3L772.977 237.727C772.977 237.727 773.04 272.633 784.123 288.848C792.006 300.382 822.338 320 822.338 320C822.338 320 780.531 310.082 743 294.5C712.718 281.927 676.125 245.775 676.125 245.775L693.242 261.95C693.242 261.95 288.945 274.577 120.145 252.105C90.2978 248.132 58.014 241.922 38.9386 229.74C21.2826 218.464 20.4841 202.412 16.6468 188.204C5.38794 146.516 -4.30037 102.933 15.0545 61.9993C21.5191 48.3276 32.3731 33.8143 53.2691 24.4574Z" fill="#FBEFCD" stroke="black" stroke-width="7.80472" stroke-linejoin="round"/>
</svg>
