<svg width="989" height="341" viewBox="0 0 989 341" fill="none" xmlns="http://www.w3.org/2000/svg">
<path d="M50.6985 34.2977C76.351 16.3492 112.904 6.20468 147.287 5.90621C373.856 3.9394 722.576 0.700565 823.408 13.0041C860.527 17.5332 901.707 23.5729 929.052 43.7615C956.27 63.8559 966.889 95.4822 974.328 124.204C987.741 175.993 990.379 232.036 971.31 282.723C963.255 304.132 946.647 324.108 926.034 339.506C905.164 355.096 878.362 366.613 850.574 372.63C816.617 379.983 744.93 374.996 744.93 374.996L734.366 376.179L732.856 350.153C732.856 350.153 732.917 401.849 743.421 425.864C750.892 442.945 779.642 472 779.642 472C779.642 472 688.441 451.307 652.869 428.23C624.166 409.61 589.482 356.068 589.482 356.068L605.706 380.023C605.706 380.023 274.079 404.729 114.085 371.447C85.7953 365.562 55.1959 356.365 37.1157 338.323C20.3809 321.624 19.624 297.851 15.9869 276.808C5.31552 215.068 -3.86731 150.52 14.4778 89.8977C20.6051 69.6497 30.8928 48.1553 50.6985 34.2977Z" fill="#FBEFCD" stroke="black" stroke-width="7.80472" stroke-linejoin="round"/>
</svg>
