<svg width="579" height="464" viewBox="0 0 579 464" fill="none" xmlns="http://www.w3.org/2000/svg">
<path d="M304.391 4.13812C466.451 -0.196781 576.275 98.0866 574.989 217.362C573.707 336.189 439.952 391.168 329.292 408.748C315.505 410.938 261.182 409.264 261.182 409.264L289.115 377.744C289.115 377.744 207.66 441.451 168.219 452.836C127.751 464.517 42.5215 458.398 42.5215 458.398C42.5215 458.398 96.4651 430.276 117.591 408.337C141.016 384.008 171.71 321.193 171.71 321.193L133.739 385.16C133.739 385.16 -0.450867 317.218 4.11389 200.675C9.00055 75.9143 156.409 8.09645 304.391 4.13812Z" fill="#FBEFCD" stroke="black" stroke-width="7.80472" stroke-linejoin="round"/>
</svg>
