<svg width="989" height="444" viewBox="0 0 989 444" fill="none" xmlns="http://www.w3.org/2000/svg">
<path d="M50.6985 32.2261C76.351 15.5048 112.904 6.05393 147.287 5.77587C373.856 3.94355 722.576 0.926168 823.408 12.3884C860.527 16.6079 901.707 22.2345 929.052 41.0428C956.27 59.7632 966.889 89.2271 974.328 115.985C987.741 164.233 990.379 216.443 971.31 263.665C963.255 283.61 946.647 302.22 926.034 316.566C905.164 331.09 878.362 341.819 850.574 347.424C816.617 354.275 744.93 349.629 744.93 349.629L734.366 350.731L732.856 326.485C732.856 326.485 732.917 374.645 743.421 397.018C750.892 412.932 779.642 440 779.642 440C779.642 440 688.441 420.722 652.869 399.223C624.166 381.876 589.482 331.995 589.482 331.995L605.706 354.312C605.706 354.312 274.079 377.328 114.085 346.322C85.7953 340.84 55.1959 332.272 37.1157 315.464C20.3809 299.906 19.624 277.759 15.9869 258.155C5.31552 200.636 -3.86731 140.502 14.4778 84.0244C20.6051 65.1609 30.8928 45.1362 50.6985 32.2261Z" fill="#FBEFCD" stroke="black" stroke-width="7.80472" stroke-linejoin="round"/>
</svg>
