<svg width="657" height="381" viewBox="0 0 657 381" fill="none" xmlns="http://www.w3.org/2000/svg">
<path d="M345.425 376.887C529.622 380.433 654.449 300.039 652.987 202.473C651.531 105.275 499.504 60.3031 373.727 45.923C358.058 44.1315 296.314 45.5011 296.314 45.5011L328.062 71.2841C328.062 71.2841 235.48 19.1728 190.651 9.86008C144.656 0.305084 47.7836 5.31018 47.7836 5.31018C47.7836 5.31018 109.096 28.3134 133.107 46.2595C159.733 66.1598 172.5 71.2841 172.5 71.2841L151.462 65.2175C151.462 65.2175 -1.0589 120.793 4.12946 216.123C9.68365 318.175 177.229 373.649 345.425 376.887Z" fill="#FBEFCD" stroke="black" stroke-width="7.80472" stroke-linejoin="round"/>
</svg>
