<svg width="656" height="305" viewBox="0 0 656 305" fill="none" xmlns="http://www.w3.org/2000/svg">
<path d="M621.153 23.2274C604.208 11.837 580.064 5.39912 557.352 5.20971C407.691 3.96154 177.344 1.90613 110.739 9.71412C86.2209 12.5884 59.0195 16.4212 40.9563 29.2333C22.9776 41.9855 15.9629 62.056 11.0493 80.2834C2.18958 113.15 0.44696 148.715 13.0431 180.882C18.3633 194.469 29.3337 207.145 42.9502 216.918C56.7355 226.811 74.4399 234.12 92.7952 237.938C115.226 242.604 162.578 239.44 162.578 239.44L169.557 240.19L170.554 223.674C170.554 223.674 170.514 256.481 163.575 271.721C158.64 282.561 139.65 301 139.65 301C139.65 301 199.892 287.868 223.389 273.223C242.349 261.406 265.259 227.428 265.259 227.428L254.543 242.63C254.543 242.63 473.599 258.308 579.283 237.187C597.97 233.453 618.183 227.616 630.125 216.167C641.18 205.569 641.68 190.483 644.082 177.128C651.131 137.947 657.197 96.9841 645.079 58.512C641.032 45.6623 634.236 32.0217 621.153 23.2274Z" fill="#FBEFCD" stroke="black" stroke-width="7.80472" stroke-linejoin="round"/>
</svg>
