<svg width="776" height="483" viewBox="0 0 776 483" fill="none" xmlns="http://www.w3.org/2000/svg">
<path d="M82.3572 134.856C82.3572 134.856 51.2798 81.8102 130.583 51.0378C209.886 20.2653 304.194 45.5952 304.194 45.5952L276.867 48.8608C276.867 48.8608 322.635 4.98248 411.898 4.23035C501.161 3.47856 537.284 24.9126 537.284 24.9126L497.096 49.9493C497.096 49.9493 580.024 8.22618 651.418 26.0013C722.812 43.7766 720.541 113.085 720.541 113.085L714.111 89.137C714.111 89.137 806.899 100.554 829.852 168.601C852.806 236.647 783.234 294.872 783.234 294.872L749.477 257.861C749.477 257.861 785.917 271.734 780.019 324.262C774.122 376.791 701.251 376.513 701.251 376.513L672.316 339.502C672.316 339.502 717.436 404.547 688.391 425.497C659.346 446.447 595.155 432.029 595.155 432.029C595.155 432.029 595.081 460.698 553.359 470.128C511.651 479.557 455.301 450.534 455.301 450.534C455.301 450.534 380.966 486.091 344.382 476.659C309.41 467.643 265.781 455.578 280.082 414.612C227.976 445.978 168.82 420.435 124.153 390.664C81.7032 362.371 103.255 297.049 103.255 297.049C103.255 297.049 26.1377 282.731 6.80378 217.585C-12.5299 152.44 82.3572 134.856 82.3572 134.856Z" fill="#FBEFCD" stroke="black" stroke-width="7.80472" stroke-linejoin="round"/>
</svg>
