<svg width="781" height="276" viewBox="0 0 781 276" fill="none" xmlns="http://www.w3.org/2000/svg">
<path d="M40.7971 21.35C61.0106 11.0718 89.813 5.26251 116.906 5.09159C295.436 3.9653 570.218 2.11058 649.67 9.15618C678.919 11.7498 711.367 15.2084 732.915 26.7694C754.362 38.2764 762.729 56.3873 768.591 72.8349C779.16 102.492 781.238 134.585 766.212 163.611C759.866 175.871 746.779 187.31 730.536 196.128C714.092 205.055 692.972 211.65 671.076 215.096C644.319 219.306 587.832 216.451 587.832 216.451L579.507 217.128L578.318 202.224C578.318 202.224 578.365 231.828 586.642 245.58C592.53 255.362 615.183 272 615.183 272C615.183 272 543.32 260.15 515.29 246.935C492.673 236.272 465.344 205.612 465.344 205.612L478.127 219.33C478.127 219.33 216.814 233.477 90.7437 214.418C68.4524 211.048 44.3409 205.782 30.0943 195.45C16.9077 185.887 16.3113 172.274 13.4454 160.224C5.03659 124.868 -2.19922 87.9049 12.2562 53.1893C17.0843 41.5943 25.1907 29.2855 40.7971 21.35Z" fill="#FBEFCD" stroke="black" stroke-width="7.80472" stroke-linejoin="round"/>
</svg>
