<svg width="712" height="370" viewBox="0 0 712 370" fill="none" xmlns="http://www.w3.org/2000/svg">
<path d="M337.641 410.879C137.833 414.691 2.42778 328.262 4.01379 223.372C5.59378 118.878 170.504 70.5296 306.94 55.0701C323.938 53.1441 395 61.6929 395 61.6929L356.475 82.3349C356.475 82.3349 430.061 39.1 505.531 16.3C581 -6.5 660.506 11.4085 660.506 11.4085C660.506 11.4085 593.997 36.1385 567.951 55.4318C539.069 76.8259 501.226 132.065 501.226 132.065L548.041 75.8129C548.041 75.8129 713.488 135.561 707.86 238.047C701.835 347.76 520.091 407.398 337.641 410.879Z" fill="#FBEFCD" stroke="black" stroke-width="7.80472" stroke-linejoin="round"/>
</svg>
