<svg width="445" height="241" viewBox="0 0 445 241" fill="none" xmlns="http://www.w3.org/2000/svg">
<path d="M420.198 19.0662C408.77 10.1409 392.487 5.09633 377.171 4.94791C276.242 3.96987 120.9 2.35928 75.9831 8.47748C59.4483 10.7297 41.1041 13.733 28.9226 23.7723C16.798 33.7647 12.0674 49.4916 8.75385 63.7743C2.77896 89.5276 1.60376 117.396 10.0984 142.602C13.6862 153.248 21.0845 163.181 30.2672 170.838C39.5638 178.591 51.5033 184.317 63.8819 187.31C79.0086 190.966 110.942 188.486 110.942 188.486L115.648 189.074L116.321 176.133C116.321 176.133 116.294 201.839 111.615 213.781C108.286 222.275 95.4796 236.724 95.4796 236.724C95.4796 236.724 136.106 226.433 151.952 214.958C164.738 205.699 180.189 179.074 180.189 179.074L172.961 190.986C172.961 190.986 320.69 203.271 391.961 186.721C404.563 183.795 418.194 179.221 426.248 170.25C433.703 161.946 434.04 150.124 435.66 139.66C440.414 108.958 444.505 76.8606 436.333 46.7146C433.603 36.6458 429.02 25.9572 420.198 19.0662Z" fill="#FBEFCD" stroke="black" stroke-width="7.80472" stroke-linejoin="round"/>
</svg>
