<svg width="445" height="241" viewBox="0 0 445 241" fill="none" xmlns="http://www.w3.org/2000/svg">
<path d="M24.8025 19.0662C36.2298 10.1409 52.5127 5.09633 67.8293 4.94791C168.758 3.96987 324.1 2.35928 369.017 8.47748C385.552 10.7297 403.896 13.733 416.077 23.7723C428.202 33.7647 432.933 49.4916 436.246 63.7743C442.221 89.5276 443.396 117.396 434.902 142.602C431.314 153.248 423.915 163.181 414.733 170.838C405.436 178.591 393.497 184.317 381.118 187.31C365.991 190.966 334.058 188.486 334.058 188.486L329.352 189.074L328.679 176.133C328.679 176.133 328.706 201.839 333.385 213.781C336.714 222.275 349.52 236.724 349.52 236.724C349.52 236.724 308.894 226.433 293.048 214.958C280.262 205.699 264.811 179.074 264.811 179.074L272.039 190.986C272.039 190.986 124.31 203.271 53.0388 186.721C40.4369 183.795 26.8059 179.221 18.7519 170.25C11.2971 161.946 10.9599 150.124 9.33975 139.66C4.58602 108.958 0.495397 76.8606 8.66748 46.7146C11.397 36.6458 15.9798 25.9572 24.8025 19.0662Z" fill="#FBEFCD" stroke="black" stroke-width="7.80472" stroke-linejoin="round"/>
</svg>
