<svg width="1920" height="948" viewBox="0 0 1920 948" fill="none" xmlns="http://www.w3.org/2000/svg">
<g filter="url(#filter0_d_219_137)">
<path d="M2.99568 50.9609C104.691 -0.74749 123.115 82.8588 146.062 77.1931C95.2076 178.627 157.025 8.01467 268.251 6.08833C379.477 4.16151 370.901 164.427 366.682 92.651C353.463 77.1657 466.617 17.6851 546.572 71.0103C626.527 124.335 594.528 211.31 588.999 214.38C542.316 278.893 644.728 114.591 746.828 148.298C848.927 182.006 787.557 268.868 801.134 262.685C814.711 256.502 900.491 178.273 995.424 210.879C1090.36 243.485 1102.79 357.292 1100.64 353.089C990.493 413.374 1190.15 271.396 1310.26 330.698C1430.36 390 1425.66 479.091 1425.66 479.091C1425.66 479.091 1517.18 415.121 1588.58 451.267C1659.98 487.413 1642.88 543.241 1642.88 565.654C1532.57 642.942 1691.25 492.726 1819.38 568.745C1947.51 644.764 1779.19 793.099 1866.9 676.948C1866.9 676.948 1982.37 722.703 1961.94 834.616C1941.5 946.529 1623.9 1033.37 1819.38 955.186C1866.06 931.649 1894.86 993.835 1826 1058.95C1757.13 1124.07 1659.86 1081.94 1659.86 1081.94C1659.86 1081.94 1676.98 1177.58 1537.67 1193.23C1398.35 1208.88 1369.13 958.09 1391.72 1072.66C1391.72 1072.66 1325.19 1090.18 1245.77 1054.11C1166.35 1018.05 1166.5 941.172 1167.7 933.544C1294.8 878.513 1102.81 983.244 997.925 945.381C893.035 907.517 879.199 828.433 879.199 828.433C879.199 828.433 812.427 915.012 719.674 874.806C626.922 834.6 685.732 751.145 685.732 751.145C685.732 751.145 648.518 797.508 583.908 766.603C519.298 735.697 499.054 689.315 499.054 689.315C499.054 689.315 430.984 770.729 363.288 735.687C295.592 700.646 298.799 615.118 298.799 615.118C298.799 615.118 213.242 679.782 139.615 636.759C65.9879 593.735 44.2371 531.647 44.2371 531.647C180.31 509.993 -75.1865 564.503 -132.259 482.183C-189.331 399.862 -115.288 386.346 -115.288 386.346C-115.288 386.346 -219.034 316.141 -162.806 237.953C-106.579 159.764 -71.1643 207.037 -60.9819 188.488C-45.9992 313.124 -98.6993 102.669 2.99568 50.9609Z" fill="#FBEFCD" stroke="black" stroke-width="1.9389" stroke-linecap="round" stroke-linejoin="round"/>
</g>
<defs>
<filter id="filter0_d_219_137" x="-190" y="0" width="2165" height="1208" filterUnits="userSpaceOnUse" color-interpolation-filters="sRGB">
<feFlood flood-opacity="0" result="BackgroundImageFix"/>
<feColorMatrix in="SourceAlpha" type="matrix" values="0 0 0 0 0 0 0 0 0 0 0 0 0 0 0 0 0 0 127 0" result="hardAlpha"/>
<feOffset dy="4"/>
<feGaussianBlur stdDeviation="2"/>
<feComposite in2="hardAlpha" operator="out"/>
<feColorMatrix type="matrix" values="0 0 0 0 0 0 0 0 0 0 0 0 0 0 0 0 0 0 0.25 0"/>
<feBlend mode="normal" in2="BackgroundImageFix" result="effect1_dropShadow_219_137"/>
<feBlend mode="normal" in="SourceGraphic" in2="effect1_dropShadow_219_137" result="shape"/>
</filter>
</defs>
</svg>
